<svg viewBox="0 0 16 16" xmlns="http://www.w3.org/2000/svg">
<defs>
<linearGradient id="a" x1="2.15" x2="2.99" y1=".98" y2="2.57" gradientTransform="matrix(.73825 .61946 -.57392 .68397 1.84 -.98)" gradientUnits="userSpaceOnUse">
<stop stop-color="#ccccf4" offset="0"/>
<stop stop-color="#9ac2ff" offset="1"/>
</linearGradient>
</defs>
<g transform="scale(3.77956)">
<path d="M2.06.26.14 2.55c-.04.05-.09.1-.07.16.02.06.1.13.13.16l.34.29.78.65.25.2c.03.03.1.09.15.08.06 0 .1-.06.45-.46L3.78 1.7c.06-.06.1-.12.1-.18s-.08-.12-.34-.33L2.6.39C2.35.17 2.28.13 2.22.13s-.11.07-.16.13z" fill="#666"/>
<path d="m2.02.8-.43.52c-.13.15-.18.21-.17.27 0 .06.07.12.25.26l.62.53c.17.14.24.2.3.2.05 0 .09-.06.22-.2l.47-.57c.13-.15.17-.2.16-.26-.02-.05-.09-.1-.26-.25L2.56.78c-.17-.15-.24-.2-.3-.2-.05 0-.1.04-.11.07L2.02.8z" fill="url(#a)"/>
<path d="m3.54 1.2.2-.23c.05-.06.07-.1.1-.1.02 0 .04.01.07.04l.1.08.05.06c0 .02 0 .04-.06.1l-.22.26-.25-.2z" fill="#8c8c8c"/>
<rect transform="rotate(40)" x="2.06" y=".58" width=".45" height=".29" ry=".08" fill="#e2e2e2"  />
<rect transform="rotate(40)" x="3.23" y=".58" width=".45" height=".29" ry=".08" fill="#e2e2e2"  />
<rect transform="rotate(40)" x="2.06" y="1.03" width=".45" height=".29" ry=".08" fill="#e2e2e2" />
<rect transform="rotate(40)" x="2.06" y="1.46" width=".45" height=".29" ry=".08" fill="#e2e2e2" />
<rect transform="rotate(40)" x="3.23" y="1.03" width=".45" height=".29" ry=".08" fill="#e2e2e2" />
<rect transform="rotate(40)" x="3.23" y="1.46" width=".45" height=".29" ry=".08" fill="#e2e2e2" />
<rect transform="rotate(40)" x="2.64" y="1.46" width=".45" height=".29" ry=".08" fill="#e2e2e2" />
<rect transform="rotate(40)" x="2.64" y="1.03" width=".45" height=".29" ry=".08" fill="#e2e2e2" />
<rect transform="rotate(40)" x="2.64" y=".58" width=".45" height=".29" ry=".08" fill="#e2e2e2"  />
</g>
</svg>
