<svg viewBox="0 0 16 16" xmlns="http://www.w3.org/2000/svg">
<path d="m8.97 3.72-.01 11.6-3.11-1V.66l3.97 1.05c2.54.69 4.1 2.01 4.07 4.34-.03 2.7-1.28 3.8-3.72 3.08V3.81c0-.65-1.2-.68-1.2-.09z" fill="#de0029"/>
<path d="m4.42 12.06-1.47.5c-.95.33-1.76-.45-.88-.76l.7-.25-2.66-.85c-.82.28-1.6.87-1.55 1.7.06.85 1.99 1.05 3.48 1.3a7.6 7.6 0 0 0 3.8-.3v-.88zm4.56 3.27 2.72-.95-2.74-.87v1.75z" fill="#f3c202"/>
<path d="m16.21 12.79.05-.02c1.19-.41 1.7-1 1.57-1.54-.2-.91-1.66-1.4-3.9-1.57a12 12 0 0 0-4.72.77l-.25.1 2.76.85 1.62-.54c1.7-.32 2.38.24.75.76l-.81.27zM5.85 8.77l-1.23.41 1.23.38z" fill="#326db3"/>
<path d="m11.7 14.38 4.51-1.6-2.93-.9-4.33 1.47v.16zm-5.85-2.8-1.43.48 1.43.46zm3.1.75v-1.8l2.77.85zm-6.18-.78 3.07-1.1v-.89l-1.22-.38-4.45 1.5-.06.02z" fill="#00aa9e"/>
<path d="m8.97 3.72-.01 11.6-3.11-1V.66l3.97 1.05c2.54.69 4.1 2.01 4.07 4.34-.03 2.7-1.28 3.8-3.72 3.08V3.81c0-.65-1.2-.68-1.2-.09z" fill="#cc0026"/>
<path d="m4.42 12.06-1.47.5c-.95.33-1.76-.45-.88-.76l.7-.25-2.66-.85c-.82.28-1.6.87-1.55 1.7.06.85 1.99 1.05 3.48 1.3a7.6 7.6 0 0 0 3.8-.3v-.88zm4.56 3.27 2.72-.95-2.74-.87v1.75z" fill="#caa202"/>
<path d="m16.21 12.79.05-.02c1.19-.41 1.7-1 1.57-1.54-.2-.91-1.66-1.4-3.9-1.57a12 12 0 0 0-4.72.77l-.25.1 2.76.85 1.62-.54c1.7-.32 2.38.24.75.76l-.81.27zM5.85 8.77l-1.23.41 1.23.38z" fill="#2d639f"/>
<path d="m11.7 14.38 4.51-1.6-2.93-.9-4.33 1.47v.16zm-5.85-2.8-1.43.48 1.43.46zm3.1.75v-1.8l2.77.85zm-6.18-.78 3.07-1.1v-.89l-1.22-.38-4.45 1.5-.06.02z" fill="#00ccbe"/>
</svg>
