<svg viewBox="0 0 16 16" xmlns="http://www.w3.org/2000/svg">
<path d="M4 15.55c0-.25 1.79-.45 4-.45 2.2 0 4 .2 4 .45S10.21 16 8 16s-4-.2-4-.45z" fill="#888"/>
<path d="M4.6 11.3c0-1.2 1.52-2.18 3.4-2.18s3.4.98 3.4 2.19c0 1.2-1.52 2.18-3.4 2.18s-3.4-.98-3.4-2.18z" fill="#e5ca00"/>
<path d="M4.83 5.6c-.5.22-.63 1.46-.63 1.46s.13 1.25.63 1.46c.5.21 3.17.34 3.17.34s2.67-.13 3.17-.34c.5-.21.63-1.46.63-1.46s-.13-1.24-.63-1.46C10.67 5.4 8 5.26 8 5.26s-2.67.13-3.17.34z" fill="#77f"/>
<path fill="#c00" d="M4.02 2.56 8 0l3.98 2.56L8 5.12z"/>
</svg>
