<svg viewBox="0 0 16 16" xmlns="http://www.w3.org/2000/svg">
<defs>
<linearGradient id="d" gradientUnits="userSpaceOnUse" x1="10.08" y1="9.83" x2="11.87" y2="8.38">
<stop offset="0" stop-color="#e6edae"/>
<stop offset="1" stop-color="#359644"/>
</linearGradient>
<linearGradient id="c" gradientUnits="userSpaceOnUse" gradientTransform="matrix(.41805 0 0 .41527 -1.2 .47)" x1="17.96" y1="19.43" x2="15" y2="17.36">
<stop stop-color="#e5edae" offset="0"/>
<stop stop-color="#249b47" offset="1"/>
</linearGradient>
<linearGradient id="b" gradientUnits="userSpaceOnUse" gradientTransform="matrix(-.41668 0 0 .41565 17.22 .47)" x1="20.3" y1="15.11" x2="22.04" y2="7.83">
<stop stop-color="#e6eead" offset="0"/>
<stop stop-color="#46873f" offset="1"/>
</linearGradient>
<linearGradient id="a" gradientUnits="userSpaceOnUse" gradientTransform="matrix(.41805 0 0 .41527 -1.24 .47)" x1="21.34" y1="15.45" x2="22.08" y2="7.5">
<stop stop-color="#e6edae" offset="0"/>
<stop stop-color="#459743" offset="1"/>
</linearGradient>
<radialGradient id="e" gradientUnits="userSpaceOnUse" gradientTransform="matrix(0 1.8458 -1.5756 0 41.66 -29.48)" cx="23.69" cy="12.77" r="14.35">
<stop stop-color="#fff" offset="0"/>
<stop stop-color="#fff" stop-opacity="0" offset="1"/>
</radialGradient>
<radialGradient id="f" gradientUnits="userSpaceOnUse" gradientTransform="matrix(0 1.1525 -.98381 0 34.1 -13.06)" cx="23.69" cy="12.77" r="14.35">
<stop stop-color="#fff" offset="0"/>
<stop stop-color="#666" stop-opacity="0" offset="1"/>
</radialGradient>
</defs>
<g transform="matrix(.4878 0 0 .46892 -3.38 -.23)">
<ellipse cx="23.33" cy="17.39" rx="14.35" ry="14.76" fill="#666"/>
<ellipse cx="23.33" cy="17.39" rx="14.35" ry="14.76" fill="url(#e)"/>
<ellipse cx="23.33" cy="17.39" rx="14.35" ry="14.76" fill="url(#f)"/>
</g>
<path d="M6.23 4.89c-.77.94-4.01 4.74-3.72 7.32.2.25.42.49.65.71-.03-1.97 2.28-4.08 4.08-5.67Z" fill="url(#c)"/>
<path d="M4.34 2.03c-.4.24-.78.53-1.13.84a5.3 5.3 0 0 1 2.84 2c.53.83.82 1.6 1.2 2.38l.79-.66V3.18a6.89 6.89 0 0 0-3.7-1.15z" fill="url(#a)"/>
<path d="M9.78 4.89c.77.94 4 4.74 3.72 7.32-.2.25-.42.49-.65.71.03-1.97-2.28-4.08-4.09-5.67z" fill="url(#d)"/>
<path d="M11.66 2.02c.4.25.78.53 1.12.85a5.29 5.29 0 0 0-2.82 2c-.54.83-.82 1.6-1.2 2.38l-.79-.66V3.17a6.85 6.85 0 0 1 3.68-1.15h.01z" fill="url(#b)"/>
</svg>
